<svg xmlns="http://www.w3.org/2000/svg" xmlns:xlink="http://www.w3.org/1999/xlink" width="640" zoomAndPan="magnify" viewBox="0 0 480 359.999987" height="480" preserveAspectRatio="xMidYMid meet" version="1.0"><defs><g/></defs><g fill="rgb(82.749939%, 87.449646%, 72.158813%)" fill-opacity="1"><g transform="translate(36.015014, 212.880308)"><g><path d="M 53.210938 -48.539062 C 61 -50.8125 69.390625 -57.886719 69.390625 -67.234375 C 69.390625 -79.578125 54.769531 -83.890625 35.355469 -83.890625 L 1.796875 -83.890625 L 1.796875 -83.292969 C 6.710938 -82.691406 10.90625 -81.375 10.90625 -77.058594 L 10.90625 -9.226562 C 10.90625 -4.914062 6.710938 -2.398438 1.796875 -0.597656 L 1.796875 0 L 40.148438 0 C 62.679688 0 77.300781 -11.984375 77.300781 -27.683594 C 77.300781 -40.148438 68.191406 -46.859375 53.210938 -48.539062 Z M 36.074219 -81.972656 C 51.652344 -81.972656 57.527344 -73.34375 57.527344 -61.960938 C 57.527344 -50.933594 52.011719 -48.898438 45.542969 -48.898438 L 23.128906 -48.898438 L 23.128906 -81.972656 Z M 42.90625 -2.15625 C 37.152344 -2.15625 29.960938 -2.996094 23.128906 -4.792969 L 23.128906 -46.859375 L 39.789062 -46.859375 C 62.320312 -46.859375 65.195312 -34.753906 65.195312 -23.488281 C 65.195312 -6.351562 58.484375 -2.15625 42.90625 -2.15625 Z M 42.90625 -2.15625 "/></g></g></g><g fill="rgb(82.749939%, 87.449646%, 72.158813%)" fill-opacity="1"><g transform="translate(118.106008, 212.880308)"><g><path d="M 60.164062 -11.984375 C 56.445312 -6.832031 46.621094 -4.433594 40.269531 -4.433594 C 25.886719 -4.433594 16.539062 -16.898438 16.417969 -33.316406 L 50.695312 -33.316406 C 65.675781 -33.316406 62.917969 -58.84375 37.992188 -58.84375 C 20.613281 -58.84375 4.792969 -46.980469 4.792969 -27.683594 C 4.792969 -9.585938 18.457031 0.839844 35.113281 0.839844 C 47.457031 0.839844 57.167969 -4.792969 60.761719 -11.503906 Z M 33.675781 -56.6875 C 49.257812 -56.6875 53.210938 -35.714844 45.902344 -35.59375 L 16.417969 -35.234375 C 17.019531 -48.777344 23.96875 -56.6875 33.675781 -56.6875 Z M 33.675781 -56.6875 "/></g></g></g><g fill="rgb(82.749939%, 87.449646%, 72.158813%)" fill-opacity="1"><g transform="translate(182.460553, 212.880308)"><g><path d="M 61.839844 -9.828125 L 61.839844 -54.410156 C 55.847656 -57.40625 49.617188 -58.84375 41.945312 -58.84375 C 17.019531 -58.84375 4.792969 -43.984375 4.792969 -26.726562 C 4.792969 -9.347656 17.019531 0.839844 33.675781 0.839844 C 39.308594 0.839844 44.101562 -0.359375 47.9375 -2.398438 C 47.9375 -2.277344 47.816406 -2.277344 47.816406 -2.277344 L 66.515625 1.4375 L 66.515625 1.078125 C 62.917969 -1.316406 61.839844 -3.355469 61.839844 -9.828125 Z M 16.417969 -33.195312 C 16.417969 -47.339844 23.609375 -56.566406 35.953125 -56.566406 C 42.546875 -56.566406 47.21875 -53.808594 50.8125 -49.976562 L 50.8125 -11.386719 C 50.8125 -9.46875 50.695312 -7.910156 50.574219 -6.710938 C 48.175781 -4.074219 45.300781 -2.515625 40.628906 -2.515625 C 26.84375 -2.515625 16.417969 -16.058594 16.417969 -33.195312 Z M 16.417969 -33.195312 "/></g></g></g><g fill="rgb(82.749939%, 87.449646%, 72.158813%)" fill-opacity="1"><g transform="translate(253.765864, 212.880308)"><g><path d="M 62.796875 -3.835938 L 62.796875 -49.855469 L 63.519531 -58.125 L 45.300781 -58.125 L 45.300781 -57.886719 C 50.695312 -55.488281 51.773438 -53.210938 51.773438 -46.738281 L 51.773438 -13.542969 C 45.78125 -8.988281 39.789062 -4.3125 31.640625 -4.3125 C 26.007812 -4.3125 19.296875 -7.550781 19.296875 -21.210938 L 19.296875 -49.855469 L 20.015625 -58.125 L 1.796875 -58.125 L 1.796875 -57.886719 C 7.191406 -55.488281 8.269531 -53.210938 8.269531 -46.738281 L 8.269531 -20.972656 C 8.269531 -2.875 17.617188 0.839844 24.808594 0.839844 C 36.074219 0.839844 45.421875 -6.113281 51.773438 -10.90625 L 51.773438 0.597656 L 69.511719 -1.199219 L 69.511719 -1.679688 C 67.59375 -1.917969 64.476562 -2.757812 62.796875 -3.835938 Z M 62.796875 -3.835938 "/></g></g></g><g fill="rgb(82.749939%, 87.449646%, 72.158813%)" fill-opacity="1"><g transform="translate(325.071161, 212.880308)"><g><path d="M 17.976562 1.917969 L 20.492188 1.917969 L 34.996094 -2.15625 L 34.996094 -2.636719 L 20.492188 -2.15625 L 20.492188 -55.25 L 34.394531 -55.25 L 34.996094 -58.125 L 20.492188 -58.125 L 20.492188 -73.585938 L 21.453125 -78.5 L -0.597656 -68.3125 L -0.597656 -67.59375 C 7.191406 -69.871094 9.46875 -70.347656 9.46875 -65.316406 L 9.46875 -8.269531 L 9.109375 -1.078125 Z M 17.976562 1.917969 "/></g></g></g><g fill="rgb(82.749939%, 87.449646%, 72.158813%)" fill-opacity="1"><g transform="translate(363.060729, 212.880308)"><g><path d="M 45.0625 -58.125 L 45.0625 -57.644531 C 49.375 -56.207031 54.410156 -54.050781 50.09375 -43.742188 L 36.074219 -10.785156 L 21.332031 -43.742188 C 16.777344 -54.050781 21.570312 -56.925781 27.5625 -57.644531 L 27.5625 -58.125 L 2.996094 -58.125 L 7.429688 -49.976562 L 30.800781 1.679688 L 29.003906 5.871094 C 25.046875 15.101562 17.019531 18.695312 7.070312 18.695312 L 11.625 23.96875 C 23.96875 23.96875 27.5625 15.21875 31.28125 6.472656 L 52.371094 -43.625 C 56.804688 -54.171875 59.683594 -56.207031 63.519531 -57.644531 L 63.519531 -58.125 Z M 45.0625 -58.125 "/></g></g></g><g fill="rgb(100%, 100%, 100%)" fill-opacity="1"><g transform="translate(183.479887, 260.339779)"><g><path d="M 13.015625 -4.40625 C 13.015625 -2.90625 12.453125 -1.742188 11.328125 -0.921875 C 10.210938 -0.109375 8.640625 0.296875 6.609375 0.296875 C 4.472656 0.296875 2.804688 -0.0390625 1.609375 -0.71875 L 1.609375 -2.984375 C 2.378906 -2.597656 3.207031 -2.289062 4.09375 -2.0625 C 4.988281 -1.832031 5.847656 -1.71875 6.671875 -1.71875 C 7.953125 -1.71875 8.9375 -1.921875 9.625 -2.328125 C 10.3125 -2.742188 10.65625 -3.367188 10.65625 -4.203125 C 10.65625 -4.828125 10.378906 -5.363281 9.828125 -5.8125 C 9.285156 -6.257812 8.222656 -6.785156 6.640625 -7.390625 C 5.140625 -7.953125 4.070312 -8.441406 3.4375 -8.859375 C 2.800781 -9.273438 2.328125 -9.75 2.015625 -10.28125 C 1.710938 -10.8125 1.5625 -11.445312 1.5625 -12.1875 C 1.5625 -13.5 2.09375 -14.535156 3.15625 -15.296875 C 4.226562 -16.054688 5.703125 -16.4375 7.578125 -16.4375 C 9.316406 -16.4375 11.015625 -16.082031 12.671875 -15.375 L 11.796875 -13.390625 C 10.179688 -14.054688 8.710938 -14.390625 7.390625 -14.390625 C 6.234375 -14.390625 5.359375 -14.207031 4.765625 -13.84375 C 4.179688 -13.476562 3.890625 -12.976562 3.890625 -12.34375 C 3.890625 -11.914062 4 -11.546875 4.21875 -11.234375 C 4.4375 -10.929688 4.789062 -10.640625 5.28125 -10.359375 C 5.78125 -10.085938 6.726562 -9.691406 8.125 -9.171875 C 10.03125 -8.472656 11.320312 -7.769531 12 -7.0625 C 12.675781 -6.363281 13.015625 -5.476562 13.015625 -4.40625 Z M 13.015625 -4.40625 "/></g></g></g><g fill="rgb(100%, 100%, 100%)" fill-opacity="1"><g transform="translate(204.755345, 260.339779)"><g><path d="M 7.8125 -1.71875 C 8.238281 -1.71875 8.65625 -1.75 9.0625 -1.8125 C 9.46875 -1.882812 9.785156 -1.953125 10.015625 -2.015625 L 10.015625 -0.140625 C 9.753906 -0.015625 9.363281 0.0859375 8.84375 0.171875 C 8.332031 0.253906 7.867188 0.296875 7.453125 0.296875 C 4.328125 0.296875 2.765625 -1.347656 2.765625 -4.640625 L 2.765625 -14.25 L 0.453125 -14.25 L 0.453125 -15.421875 L 2.765625 -16.4375 L 3.796875 -19.890625 L 5.21875 -19.890625 L 5.21875 -16.140625 L 9.90625 -16.140625 L 9.90625 -14.25 L 5.21875 -14.25 L 5.21875 -4.75 C 5.21875 -3.769531 5.445312 -3.019531 5.90625 -2.5 C 6.363281 -1.976562 7 -1.71875 7.8125 -1.71875 Z M 7.8125 -1.71875 "/></g></g></g><g fill="rgb(100%, 100%, 100%)" fill-opacity="1"><g transform="translate(222.288475, 260.339779)"><g><path d="M 16.53125 -8.09375 C 16.53125 -5.457031 15.863281 -3.398438 14.53125 -1.921875 C 13.207031 -0.441406 11.378906 0.296875 9.046875 0.296875 C 7.597656 0.296875 6.3125 -0.0390625 5.1875 -0.71875 C 4.070312 -1.394531 3.207031 -2.367188 2.59375 -3.640625 C 1.988281 -4.910156 1.6875 -6.394531 1.6875 -8.09375 C 1.6875 -10.71875 2.34375 -12.765625 3.65625 -14.234375 C 4.976562 -15.703125 6.8125 -16.4375 9.15625 -16.4375 C 11.40625 -16.4375 13.195312 -15.6875 14.53125 -14.1875 C 15.863281 -12.6875 16.53125 -10.65625 16.53125 -8.09375 Z M 4.234375 -8.09375 C 4.234375 -6.03125 4.644531 -4.457031 5.46875 -3.375 C 6.289062 -2.289062 7.503906 -1.75 9.109375 -1.75 C 10.703125 -1.75 11.914062 -2.285156 12.75 -3.359375 C 13.582031 -4.441406 14 -6.019531 14 -8.09375 C 14 -10.144531 13.582031 -11.703125 12.75 -12.765625 C 11.914062 -13.828125 10.691406 -14.359375 9.078125 -14.359375 C 7.472656 -14.359375 6.265625 -13.832031 5.453125 -12.78125 C 4.640625 -11.738281 4.234375 -10.175781 4.234375 -8.09375 Z M 4.234375 -8.09375 "/></g></g></g><g fill="rgb(100%, 100%, 100%)" fill-opacity="1"><g transform="translate(247.394662, 260.339779)"><g><path d="M 9.953125 -16.4375 C 10.671875 -16.4375 11.316406 -16.378906 11.890625 -16.265625 L 11.546875 -14 C 10.878906 -14.144531 10.289062 -14.21875 9.78125 -14.21875 C 8.476562 -14.21875 7.359375 -13.6875 6.421875 -12.625 C 5.492188 -11.5625 5.03125 -10.238281 5.03125 -8.65625 L 5.03125 0 L 2.59375 0 L 2.59375 -16.140625 L 4.609375 -16.140625 L 4.890625 -13.15625 L 5.015625 -13.15625 C 5.609375 -14.207031 6.328125 -15.015625 7.171875 -15.578125 C 8.015625 -16.148438 8.941406 -16.4375 9.953125 -16.4375 Z M 9.953125 -16.4375 "/></g></g></g><g fill="rgb(100%, 100%, 100%)" fill-opacity="1"><g transform="translate(266.592686, 260.339779)"><g><path d="M 9.40625 0.296875 C 7.019531 0.296875 5.132812 -0.425781 3.75 -1.875 C 2.375 -3.332031 1.6875 -5.351562 1.6875 -7.9375 C 1.6875 -10.539062 2.328125 -12.609375 3.609375 -14.140625 C 4.898438 -15.671875 6.625 -16.4375 8.78125 -16.4375 C 10.800781 -16.4375 12.398438 -15.769531 13.578125 -14.4375 C 14.753906 -13.113281 15.34375 -11.359375 15.34375 -9.171875 L 15.34375 -7.625 L 4.234375 -7.625 C 4.273438 -5.726562 4.75 -4.289062 5.65625 -3.3125 C 6.570312 -2.332031 7.851562 -1.84375 9.5 -1.84375 C 11.238281 -1.84375 12.957031 -2.207031 14.65625 -2.9375 L 14.65625 -0.75 C 13.789062 -0.375 12.972656 -0.109375 12.203125 0.046875 C 11.429688 0.210938 10.5 0.296875 9.40625 0.296875 Z M 8.75 -14.390625 C 7.457031 -14.390625 6.425781 -13.96875 5.65625 -13.125 C 4.882812 -12.28125 4.425781 -11.113281 4.28125 -9.625 L 12.734375 -9.625 C 12.734375 -11.164062 12.390625 -12.34375 11.703125 -13.15625 C 11.015625 -13.976562 10.03125 -14.390625 8.75 -14.390625 Z M 8.75 -14.390625 "/></g></g></g></svg>